<?xml version="1.0" standalone="no"?>
<svg xmlns:xlink="http://www.w3.org/1999/xlink" id="wave" style="transform:rotate(0deg); transition: 0.3s" viewBox="0 0 1440 380" version="1.1" xmlns="http://www.w3.org/2000/svg"><defs><linearGradient id="sw-gradient-0" x1="0" x2="0" y1="1" y2="0"><stop stop-color="rgba(213.039, 236.801, 239.489, 1)" offset="0%"/><stop stop-color="rgba(32.482, 217.312, 255, 1)" offset="100%"/></linearGradient></defs><path style="transform:translate(0, 0px); opacity:1" fill="url(#sw-gradient-0)" d="M0,304L30,253.3C60,203,120,101,180,50.7C240,0,300,0,360,31.7C420,63,480,127,540,164.7C600,203,660,215,720,215.3C780,215,840,203,900,209C960,215,1020,241,1080,266C1140,291,1200,317,1260,310.3C1320,304,1380,266,1440,209C1500,152,1560,76,1620,69.7C1680,63,1740,127,1800,145.7C1860,165,1920,139,1980,114C2040,89,2100,63,2160,88.7C2220,114,2280,190,2340,196.3C2400,203,2460,139,2520,145.7C2580,152,2640,228,2700,215.3C2760,203,2820,101,2880,57C2940,13,3000,25,3060,69.7C3120,114,3180,190,3240,209C3300,228,3360,190,3420,171C3480,152,3540,152,3600,171C3660,190,3720,228,3780,215.3C3840,203,3900,139,3960,145.7C4020,152,4080,228,4140,259.7C4200,291,4260,279,4290,272.3L4320,266L4320,380L4290,380C4260,380,4200,380,4140,380C4080,380,4020,380,3960,380C3900,380,3840,380,3780,380C3720,380,3660,380,3600,380C3540,380,3480,380,3420,380C3360,380,3300,380,3240,380C3180,380,3120,380,3060,380C3000,380,2940,380,2880,380C2820,380,2760,380,2700,380C2640,380,2580,380,2520,380C2460,380,2400,380,2340,380C2280,380,2220,380,2160,380C2100,380,2040,380,1980,380C1920,380,1860,380,1800,380C1740,380,1680,380,1620,380C1560,380,1500,380,1440,380C1380,380,1320,380,1260,380C1200,380,1140,380,1080,380C1020,380,960,380,900,380C840,380,780,380,720,380C660,380,600,380,540,380C480,380,420,380,360,380C300,380,240,380,180,380C120,380,60,380,30,380L0,380Z"/></svg>